<?xml version="1.0" encoding="UTF-8" standalone="no"?>
<!DOCTYPE svg PUBLIC "-//W3C//DTD SVG 1.1//EN" "http://www.w3.org/Graphics/SVG/1.1/DTD/svg11.dtd">
<svg width="100%" height="100%" viewBox="0 0 68 68" version="1.1" xmlns="http://www.w3.org/2000/svg" xmlns:xlink="http://www.w3.org/1999/xlink" xml:space="preserve" xmlns:serif="http://www.serif.com/" style="fill-rule:evenodd;clip-rule:evenodd;stroke-linejoin:round;stroke-miterlimit:2;">
    <g transform="matrix(1,0,0,1,-10.9726,-8)">
        <g>
            <g transform="matrix(0.7,0,0,0.577256,9.5,50.3986)">
                <rect x="45" y="8" width="10" height="36" style="fill:rgb(30,35,40);"/>
            </g>
            <g transform="matrix(0.7,0,0,1,9.5,-48)">
                <rect x="45" y="56" width="10" height="36" style="fill:rgb(30,35,40);"/>
            </g>
            <g transform="matrix(0.7,0,0,1,9.08785,-0.652357)">
                <rect x="62" y="24" width="10" height="20" style="fill:rgb(30,35,40);"/>
            </g>
            <g transform="matrix(0.7,0,0,1,9.91724,-0.652357)">
                <rect x="28" y="24" width="10" height="20" style="fill:rgb(45,106,79);"/>
            </g>
            <g transform="matrix(0.823529,0,0,0.7,1.09028,13.8)">
                <rect x="12" y="46" width="34" height="10" style="fill:rgb(45,106,79);"/>
            </g>
            <g transform="matrix(0.875,0,0,0.7,1,13.8)">
                <rect x="56" y="46" width="32" height="10" style="fill:rgb(82,183,136);"/>
            </g>
            <g transform="matrix(0.875,0,0,0.7,0.75,13.8)">
                <rect x="46" y="46" width="8" height="10" style="fill:rgb(45,106,79);"/>
            </g>
        </g>
    </g>
</svg>
